<svg width="770" height="156" viewBox="0 0 770 156" fill="none" xmlns="http://www.w3.org/2000/svg">
<g filter="url(#filter0_d_2_365)">
<rect width="770" height="95" rx="10" fill="white"/>
</g>
<g clip-path="url(#clip0_2_365)">
<rect x="551" y="23" width="199" height="51" rx="8" fill="#473BF0"/>
<path d="M609.15 51.6299C609.15 52.7256 608.754 53.5889 607.963 54.2197C607.177 54.8506 606.082 55.166 604.676 55.166C603.381 55.166 602.236 54.9225 601.239 54.4355V52.0449C602.058 52.4102 602.75 52.6675 603.315 52.8169C603.885 52.9663 604.405 53.041 604.875 53.041C605.44 53.041 605.871 52.9331 606.17 52.7173C606.474 52.5015 606.627 52.1805 606.627 51.7544C606.627 51.5164 606.56 51.3062 606.427 51.1235C606.295 50.9354 606.098 50.7555 605.838 50.584C605.584 50.4124 605.061 50.1385 604.269 49.7622C603.528 49.4136 602.972 49.0788 602.601 48.7578C602.23 48.4368 601.934 48.0633 601.713 47.6372C601.491 47.2111 601.381 46.7131 601.381 46.1431C601.381 45.0695 601.743 44.2256 602.468 43.6113C603.198 42.9971 604.206 42.6899 605.489 42.6899C606.12 42.6899 606.721 42.7646 607.291 42.9141C607.866 43.0635 608.467 43.2738 609.092 43.5449L608.262 45.5454C607.614 45.2798 607.078 45.0944 606.652 44.9893C606.231 44.8841 605.816 44.8315 605.406 44.8315C604.919 44.8315 604.546 44.945 604.286 45.1719C604.026 45.3988 603.896 45.6948 603.896 46.0601C603.896 46.2869 603.948 46.4862 604.053 46.6577C604.159 46.8237 604.325 46.987 604.551 47.1475C604.784 47.3024 605.329 47.5846 606.187 47.9941C607.321 48.5365 608.099 49.0815 608.519 49.6294C608.94 50.1717 609.15 50.8385 609.15 51.6299ZM614.394 47.3467C613.857 47.3467 613.436 47.5182 613.132 47.8613C612.828 48.1989 612.653 48.6803 612.609 49.3057H616.162C616.151 48.6803 615.988 48.1989 615.672 47.8613C615.357 47.5182 614.931 47.3467 614.394 47.3467ZM614.751 55.166C613.257 55.166 612.089 54.7537 611.248 53.9292C610.407 53.1047 609.986 51.937 609.986 50.4263C609.986 48.8713 610.373 47.6704 611.148 46.8237C611.929 45.9715 613.005 45.5454 614.377 45.5454C615.689 45.5454 616.71 45.9189 617.44 46.666C618.171 47.4131 618.536 48.4451 618.536 49.7622V50.9907H612.551C612.579 51.7101 612.792 52.2718 613.19 52.6758C613.589 53.0798 614.148 53.2817 614.867 53.2817C615.426 53.2817 615.954 53.2236 616.452 53.1074C616.95 52.9912 617.471 52.8058 618.013 52.5513V54.5103C617.57 54.7316 617.097 54.8949 616.594 55C616.09 55.1107 615.476 55.166 614.751 55.166ZM625.888 55L625.398 53.7383H625.332C624.906 54.2751 624.466 54.6486 624.012 54.8589C623.564 55.0636 622.977 55.166 622.252 55.166C621.361 55.166 620.659 54.9115 620.144 54.4023C619.635 53.8932 619.38 53.1683 619.38 52.2275C619.38 51.2425 619.723 50.5176 620.41 50.0527C621.101 49.5824 622.142 49.3223 623.531 49.2725L625.141 49.2227V48.8159C625.141 47.8752 624.66 47.4048 623.697 47.4048C622.955 47.4048 622.084 47.6289 621.082 48.0771L620.244 46.3672C621.312 45.8083 622.496 45.5288 623.796 45.5288C625.041 45.5288 625.996 45.8 626.66 46.3423C627.324 46.8846 627.656 47.7091 627.656 48.8159V55H625.888ZM625.141 50.7002L624.162 50.7334C623.426 50.7555 622.878 50.8883 622.518 51.1318C622.158 51.3753 621.978 51.7461 621.978 52.2441C621.978 52.958 622.388 53.3149 623.207 53.3149C623.794 53.3149 624.261 53.1462 624.61 52.8086C624.964 52.471 625.141 52.0228 625.141 51.4639V50.7002ZM634.851 45.5454C635.194 45.5454 635.479 45.5703 635.706 45.6201L635.515 47.9941C635.31 47.9388 635.061 47.9111 634.768 47.9111C633.96 47.9111 633.329 48.1187 632.875 48.5337C632.427 48.9487 632.203 49.5298 632.203 50.2769V55H629.671V45.7197H631.588L631.962 47.2803H632.086C632.374 46.7601 632.762 46.3423 633.249 46.0269C633.741 45.7059 634.275 45.5454 634.851 45.5454ZM640.559 55.166C637.671 55.166 636.226 53.5806 636.226 50.4097C636.226 48.8325 636.619 47.6289 637.405 46.7988C638.191 45.9632 639.317 45.5454 640.783 45.5454C641.857 45.5454 642.82 45.7557 643.672 46.1763L642.925 48.1353C642.526 47.9748 642.156 47.8447 641.813 47.7451C641.469 47.64 641.126 47.5874 640.783 47.5874C639.466 47.5874 638.808 48.5226 638.808 50.3931C638.808 52.2082 639.466 53.1157 640.783 53.1157C641.27 53.1157 641.721 53.0521 642.136 52.9248C642.551 52.792 642.966 52.5872 643.381 52.3105V54.4771C642.972 54.7371 642.557 54.917 642.136 55.0166C641.721 55.1162 641.196 55.166 640.559 55.166ZM653.506 55H650.974V49.5796C650.974 48.2404 650.476 47.5708 649.48 47.5708C648.772 47.5708 648.26 47.8115 647.945 48.293C647.629 48.7744 647.471 49.5547 647.471 50.6338V55H644.94V42.084H647.471V44.7153C647.471 44.9201 647.452 45.4015 647.413 46.1597L647.355 46.9067H647.488C648.052 45.9992 648.949 45.5454 650.177 45.5454C651.268 45.5454 652.095 45.8387 652.659 46.4253C653.224 47.0119 653.506 47.853 653.506 48.9487V55ZM662.101 48.5752H662.948C663.739 48.5752 664.331 48.4202 664.724 48.1104C665.117 47.7949 665.313 47.3384 665.313 46.7407C665.313 46.1375 665.147 45.6921 664.815 45.4043C664.489 45.1165 663.974 44.9727 663.271 44.9727H662.101V48.5752ZM667.912 46.6494C667.912 47.9554 667.502 48.9543 666.683 49.646C665.87 50.3377 664.71 50.6836 663.205 50.6836H662.101V55H659.528V42.8643H663.404C664.876 42.8643 665.994 43.1825 666.758 43.8188C667.527 44.4497 667.912 45.3932 667.912 46.6494ZM671.935 55H669.403V42.084H671.935V55ZM679.893 55L679.403 53.7383H679.337C678.911 54.2751 678.471 54.6486 678.017 54.8589C677.569 55.0636 676.982 55.166 676.257 55.166C675.366 55.166 674.664 54.9115 674.149 54.4023C673.64 53.8932 673.385 53.1683 673.385 52.2275C673.385 51.2425 673.728 50.5176 674.415 50.0527C675.106 49.5824 676.147 49.3223 677.536 49.2725L679.146 49.2227V48.8159C679.146 47.8752 678.665 47.4048 677.702 47.4048C676.96 47.4048 676.089 47.6289 675.087 48.0771L674.249 46.3672C675.317 45.8083 676.501 45.5288 677.801 45.5288C679.046 45.5288 680.001 45.8 680.665 46.3423C681.329 46.8846 681.661 47.7091 681.661 48.8159V55H679.893ZM679.146 50.7002L678.167 50.7334C677.431 50.7555 676.883 50.8883 676.523 51.1318C676.163 51.3753 675.983 51.7461 675.983 52.2441C675.983 52.958 676.393 53.3149 677.212 53.3149C677.799 53.3149 678.266 53.1462 678.615 52.8086C678.969 52.471 679.146 52.0228 679.146 51.4639V50.7002ZM687.445 55.166C684.556 55.166 683.112 53.5806 683.112 50.4097C683.112 48.8325 683.504 47.6289 684.29 46.7988C685.076 45.9632 686.202 45.5454 687.669 45.5454C688.742 45.5454 689.705 45.7557 690.557 46.1763L689.81 48.1353C689.412 47.9748 689.041 47.8447 688.698 47.7451C688.355 47.64 688.012 47.5874 687.669 47.5874C686.352 47.5874 685.693 48.5226 685.693 50.3931C685.693 52.2082 686.352 53.1157 687.669 53.1157C688.156 53.1157 688.607 53.0521 689.022 52.9248C689.437 52.792 689.852 52.5872 690.267 52.3105V54.4771C689.857 54.7371 689.442 54.917 689.022 55.0166C688.607 55.1162 688.081 55.166 687.445 55.166ZM695.668 47.3467C695.131 47.3467 694.711 47.5182 694.407 47.8613C694.102 48.1989 693.928 48.6803 693.884 49.3057H697.436C697.425 48.6803 697.262 48.1989 696.947 47.8613C696.631 47.5182 696.205 47.3467 695.668 47.3467ZM696.025 55.166C694.531 55.166 693.363 54.7537 692.522 53.9292C691.681 53.1047 691.261 51.937 691.261 50.4263C691.261 48.8713 691.648 47.6704 692.423 46.8237C693.203 45.9715 694.279 45.5454 695.652 45.5454C696.963 45.5454 697.984 45.9189 698.715 46.666C699.445 47.4131 699.81 48.4451 699.81 49.7622V50.9907H693.825C693.853 51.7101 694.066 52.2718 694.465 52.6758C694.863 53.0798 695.422 53.2817 696.141 53.2817C696.7 53.2817 697.229 53.2236 697.727 53.1074C698.225 52.9912 698.745 52.8058 699.287 52.5513V54.5103C698.845 54.7316 698.372 54.8949 697.868 55C697.364 55.1107 696.75 55.166 696.025 55.166Z" fill="white"/>
</g>
<g clip-path="url(#clip1_2_365)">
<rect x="11" y="24" width="250" height="50" rx="8" fill="white"/>
<rect x="11" y="24" width="250" height="50" rx="8" stroke="#E7E9ED"/>
<path d="M64.5073 52.1509C64.5073 52.7856 64.3486 53.3276 64.0312 53.7769C63.7188 54.2212 63.2793 54.5605 62.7129 54.7949C62.1465 55.0293 61.48 55.1465 60.7134 55.1465C60.3081 55.1465 59.9248 55.127 59.5635 55.0879C59.2021 55.0488 58.8701 54.9927 58.5674 54.9194C58.2646 54.8462 57.9985 54.7559 57.769 54.6484V53.4546C58.1353 53.606 58.582 53.7476 59.1094 53.8794C59.6367 54.0063 60.1885 54.0698 60.7646 54.0698C61.3018 54.0698 61.7559 53.999 62.127 53.8574C62.498 53.7109 62.7788 53.5034 62.9692 53.2349C63.1646 52.9614 63.2622 52.6343 63.2622 52.2534C63.2622 51.8872 63.1816 51.582 63.0205 51.3379C62.8594 51.0889 62.5908 50.8643 62.2148 50.6641C61.8438 50.459 61.3359 50.2417 60.6914 50.0122C60.2373 49.8511 59.8369 49.6753 59.4902 49.4849C59.1436 49.2896 58.853 49.0698 58.6187 48.8257C58.3843 48.5815 58.2061 48.2983 58.084 47.9761C57.9668 47.6538 57.9082 47.2852 57.9082 46.8701C57.9082 46.2988 58.0522 45.8105 58.3403 45.4053C58.6333 44.9951 59.0361 44.6826 59.5488 44.4678C60.0664 44.248 60.6597 44.1382 61.3286 44.1382C61.8999 44.1382 62.4272 44.1919 62.9106 44.2993C63.3989 44.4067 63.8457 44.5508 64.251 44.7314L63.8628 45.8008C63.4771 45.6396 63.0669 45.5054 62.6323 45.3979C62.2026 45.2905 61.7583 45.2368 61.2993 45.2368C60.8403 45.2368 60.4521 45.3052 60.1348 45.4419C59.8223 45.5737 59.583 45.7617 59.417 46.0059C59.251 46.25 59.168 46.5405 59.168 46.8774C59.168 47.2534 59.2461 47.5659 59.4023 47.8149C59.5635 48.064 59.8174 48.2861 60.1641 48.4814C60.5156 48.6719 60.9795 48.8721 61.5557 49.082C62.1855 49.3115 62.7202 49.5557 63.1597 49.8145C63.5991 50.0684 63.9336 50.3809 64.1631 50.752C64.3926 51.1182 64.5073 51.5845 64.5073 52.1509ZM69.505 46.8262C70.1886 46.8262 70.7745 46.9775 71.2628 47.2803C71.7511 47.583 72.1246 48.0078 72.3834 48.5547C72.6422 49.0967 72.7716 49.7314 72.7716 50.459V51.2134H67.2271C67.2418 52.1558 67.4762 52.8735 67.9303 53.3667C68.3844 53.8599 69.024 54.1064 69.8492 54.1064C70.357 54.1064 70.8062 54.0601 71.1969 53.9673C71.5875 53.8745 71.9928 53.7378 72.4127 53.5571V54.6265C72.0074 54.8071 71.6046 54.939 71.2042 55.022C70.8087 55.105 70.3399 55.1465 69.7979 55.1465C69.0265 55.1465 68.3526 54.9902 67.7765 54.6777C67.2052 54.3604 66.7608 53.8965 66.4435 53.2861C66.1261 52.6758 65.9674 51.9287 65.9674 51.0449C65.9674 50.1807 66.1114 49.4336 66.3995 48.8037C66.6925 48.1689 67.1026 47.6807 67.63 47.3389C68.1622 46.9971 68.7872 46.8262 69.505 46.8262ZM69.4903 47.8223C68.8409 47.8223 68.3233 48.0347 67.9376 48.4595C67.5519 48.8843 67.3224 49.4775 67.2491 50.2393H71.4972C71.4923 49.7607 71.4166 49.3408 71.2701 48.9795C71.1285 48.6133 70.9112 48.3301 70.6183 48.1299C70.3253 47.9248 69.9493 47.8223 69.4903 47.8223ZM75.9602 55H74.737V43.6035H75.9602V55ZM81.5218 46.8262C82.2054 46.8262 82.7913 46.9775 83.2796 47.2803C83.7679 47.583 84.1414 48.0078 84.4002 48.5547C84.659 49.0967 84.7884 49.7314 84.7884 50.459V51.2134H79.2439C79.2586 52.1558 79.493 52.8735 79.9471 53.3667C80.4012 53.8599 81.0408 54.1064 81.866 54.1064C82.3738 54.1064 82.823 54.0601 83.2137 53.9673C83.6043 53.8745 84.0096 53.7378 84.4295 53.5571V54.6265C84.0242 54.8071 83.6214 54.939 83.221 55.022C82.8255 55.105 82.3567 55.1465 81.8147 55.1465C81.0433 55.1465 80.3694 54.9902 79.7933 54.6777C79.222 54.3604 78.7776 53.8965 78.4603 53.2861C78.1429 52.6758 77.9842 51.9287 77.9842 51.0449C77.9842 50.1807 78.1282 49.4336 78.4163 48.8037C78.7093 48.1689 79.1194 47.6807 79.6468 47.3389C80.179 46.9971 80.804 46.8262 81.5218 46.8262ZM81.5071 47.8223C80.8577 47.8223 80.3401 48.0347 79.9544 48.4595C79.5687 48.8843 79.3392 49.4775 79.2659 50.2393H83.514C83.5091 49.7607 83.4334 49.3408 83.2869 48.9795C83.1453 48.6133 82.928 48.3301 82.6351 48.1299C82.3421 47.9248 81.9661 47.8223 81.5071 47.8223ZM89.9691 55.1465C89.2465 55.1465 88.6093 54.9976 88.0575 54.6997C87.5058 54.4019 87.0761 53.9478 86.7685 53.3374C86.4608 52.7271 86.307 51.958 86.307 51.0303C86.307 50.0586 86.4682 49.2651 86.7904 48.6499C87.1176 48.0298 87.5668 47.5708 88.1381 47.2729C88.7094 46.9751 89.3588 46.8262 90.0863 46.8262C90.4867 46.8262 90.8725 46.8677 91.2436 46.9507C91.6195 47.0288 91.9271 47.1289 92.1664 47.251L91.8002 48.269C91.5561 48.1714 91.2729 48.0835 90.9506 48.0054C90.6332 47.9272 90.3354 47.8882 90.057 47.8882C89.5004 47.8882 89.0365 48.0078 88.6654 48.2471C88.2992 48.4863 88.0233 48.8379 87.8378 49.3018C87.6571 49.7656 87.5668 50.3369 87.5668 51.0156C87.5668 51.665 87.6547 52.2192 87.8305 52.6782C88.0111 53.1372 88.2772 53.4888 88.6288 53.7329C88.9853 53.9722 89.4296 54.0918 89.9618 54.0918C90.3866 54.0918 90.7699 54.0479 91.1117 53.96C91.4535 53.8672 91.7636 53.7598 92.0419 53.6377V54.7217C91.7733 54.8584 91.473 54.9634 91.141 55.0366C90.8139 55.1099 90.4232 55.1465 89.9691 55.1465ZM96.439 54.1504C96.6392 54.1504 96.8442 54.1333 97.0542 54.0991C97.2642 54.0649 97.4351 54.0234 97.5669 53.9746V54.9194C97.4253 54.9829 97.2275 55.0366 96.9736 55.0806C96.7246 55.1245 96.4805 55.1465 96.2412 55.1465C95.8164 55.1465 95.4307 55.0732 95.084 54.9268C94.7373 54.7754 94.459 54.5215 94.249 54.165C94.0439 53.8086 93.9414 53.3154 93.9414 52.6855V47.9248H92.7988V47.3315L93.9487 46.8555L94.4321 45.1123H95.1646V46.9727H97.5156V47.9248H95.1646V52.6489C95.1646 53.1519 95.2793 53.5278 95.5088 53.7769C95.7432 54.0259 96.0532 54.1504 96.439 54.1504ZM103.072 55V44.292H104.318V53.8867H109.071V55H103.072ZM117.548 50.9717C117.548 51.6309 117.462 52.2192 117.291 52.7368C117.12 53.2544 116.874 53.6914 116.552 54.0479C116.229 54.4043 115.839 54.6777 115.38 54.8682C114.926 55.0537 114.41 55.1465 113.834 55.1465C113.297 55.1465 112.804 55.0537 112.355 54.8682C111.91 54.6777 111.525 54.4043 111.198 54.0479C110.875 53.6914 110.624 53.2544 110.443 52.7368C110.267 52.2192 110.179 51.6309 110.179 50.9717C110.179 50.0928 110.328 49.3457 110.626 48.7305C110.924 48.1104 111.349 47.6392 111.901 47.3169C112.457 46.9897 113.119 46.8262 113.886 46.8262C114.618 46.8262 115.258 46.9897 115.804 47.3169C116.356 47.644 116.783 48.1177 117.086 48.7378C117.394 49.353 117.548 50.0977 117.548 50.9717ZM111.439 50.9717C111.439 51.6162 111.525 52.1753 111.696 52.6489C111.867 53.1226 112.13 53.4888 112.487 53.7476C112.843 54.0063 113.302 54.1357 113.864 54.1357C114.42 54.1357 114.877 54.0063 115.233 53.7476C115.595 53.4888 115.861 53.1226 116.032 52.6489C116.202 52.1753 116.288 51.6162 116.288 50.9717C116.288 50.332 116.202 49.7803 116.032 49.3164C115.861 48.8477 115.597 48.4863 115.241 48.2324C114.884 47.9785 114.423 47.8516 113.856 47.8516C113.021 47.8516 112.408 48.1274 112.018 48.6792C111.632 49.231 111.439 49.9951 111.439 50.9717ZM122.765 55.1465C122.042 55.1465 121.405 54.9976 120.853 54.6997C120.302 54.4019 119.872 53.9478 119.564 53.3374C119.257 52.7271 119.103 51.958 119.103 51.0303C119.103 50.0586 119.264 49.2651 119.586 48.6499C119.913 48.0298 120.363 47.5708 120.934 47.2729C121.505 46.9751 122.155 46.8262 122.882 46.8262C123.283 46.8262 123.668 46.8677 124.039 46.9507C124.415 47.0288 124.723 47.1289 124.962 47.251L124.596 48.269C124.352 48.1714 124.069 48.0835 123.746 48.0054C123.429 47.9272 123.131 47.8882 122.853 47.8882C122.296 47.8882 121.832 48.0078 121.461 48.2471C121.095 48.4863 120.819 48.8379 120.634 49.3018C120.453 49.7656 120.363 50.3369 120.363 51.0156C120.363 51.665 120.451 52.2192 120.626 52.6782C120.807 53.1372 121.073 53.4888 121.425 53.7329C121.781 53.9722 122.225 54.0918 122.758 54.0918C123.183 54.0918 123.566 54.0479 123.908 53.96C124.249 53.8672 124.559 53.7598 124.838 53.6377V54.7217C124.569 54.8584 124.269 54.9634 123.937 55.0366C123.61 55.1099 123.219 55.1465 122.765 55.1465ZM129.645 46.8408C130.602 46.8408 131.312 47.0557 131.776 47.4854C132.24 47.915 132.472 48.6011 132.472 49.5435V55H131.586L131.352 53.8135H131.293C131.068 54.1064 130.834 54.353 130.59 54.5532C130.346 54.7485 130.062 54.8975 129.74 55C129.423 55.0977 129.032 55.1465 128.568 55.1465C128.08 55.1465 127.646 55.061 127.265 54.8901C126.889 54.7192 126.591 54.4604 126.371 54.1138C126.156 53.7671 126.049 53.3276 126.049 52.7954C126.049 51.9946 126.366 51.3794 127.001 50.9497C127.636 50.52 128.603 50.2856 129.901 50.2466L131.286 50.188V49.6973C131.286 49.0039 131.137 48.5181 130.839 48.2397C130.541 47.9614 130.121 47.8223 129.579 47.8223C129.159 47.8223 128.759 47.8833 128.378 48.0054C127.997 48.1274 127.636 48.2715 127.294 48.4375L126.92 47.5146C127.282 47.3291 127.697 47.1704 128.166 47.0386C128.634 46.9067 129.127 46.8408 129.645 46.8408ZM131.271 51.0449L130.048 51.0962C129.047 51.1353 128.341 51.2988 127.931 51.5869C127.521 51.875 127.316 52.2827 127.316 52.8101C127.316 53.269 127.455 53.6084 127.733 53.8281C128.012 54.0479 128.38 54.1577 128.839 54.1577C129.552 54.1577 130.136 53.96 130.59 53.5645C131.044 53.1689 131.271 52.5757 131.271 51.7847V51.0449ZM137.47 54.1504C137.67 54.1504 137.875 54.1333 138.085 54.0991C138.295 54.0649 138.466 54.0234 138.598 53.9746V54.9194C138.456 54.9829 138.258 55.0366 138.004 55.0806C137.755 55.1245 137.511 55.1465 137.272 55.1465C136.847 55.1465 136.462 55.0732 136.115 54.9268C135.768 54.7754 135.49 54.5215 135.28 54.165C135.075 53.8086 134.972 53.3154 134.972 52.6855V47.9248H133.83V47.3315L134.98 46.8555L135.463 45.1123H136.195V46.9727H138.546V47.9248H136.195V52.6489C136.195 53.1519 136.31 53.5278 136.54 53.7769C136.774 54.0259 137.084 54.1504 137.47 54.1504ZM141.34 46.9727V55H140.124V46.9727H141.34ZM140.746 43.9697C140.946 43.9697 141.117 44.0356 141.259 44.1675C141.405 44.2944 141.479 44.4946 141.479 44.7681C141.479 45.0366 141.405 45.2368 141.259 45.3687C141.117 45.5005 140.946 45.5664 140.746 45.5664C140.536 45.5664 140.361 45.5005 140.219 45.3687C140.082 45.2368 140.014 45.0366 140.014 44.7681C140.014 44.4946 140.082 44.2944 140.219 44.1675C140.361 44.0356 140.536 43.9697 140.746 43.9697ZM150.739 50.9717C150.739 51.6309 150.654 52.2192 150.483 52.7368C150.312 53.2544 150.065 53.6914 149.743 54.0479C149.421 54.4043 149.03 54.6777 148.571 54.8682C148.117 55.0537 147.602 55.1465 147.026 55.1465C146.489 55.1465 145.995 55.0537 145.546 54.8682C145.102 54.6777 144.716 54.4043 144.389 54.0479C144.067 53.6914 143.815 53.2544 143.635 52.7368C143.459 52.2192 143.371 51.6309 143.371 50.9717C143.371 50.0928 143.52 49.3457 143.818 48.7305C144.116 48.1104 144.54 47.6392 145.092 47.3169C145.649 46.9897 146.31 46.8262 147.077 46.8262C147.809 46.8262 148.449 46.9897 148.996 47.3169C149.548 47.644 149.975 48.1177 150.278 48.7378C150.585 49.353 150.739 50.0977 150.739 50.9717ZM144.631 50.9717C144.631 51.6162 144.716 52.1753 144.887 52.6489C145.058 53.1226 145.322 53.4888 145.678 53.7476C146.034 54.0063 146.493 54.1357 147.055 54.1357C147.612 54.1357 148.068 54.0063 148.425 53.7476C148.786 53.4888 149.052 53.1226 149.223 52.6489C149.394 52.1753 149.479 51.6162 149.479 50.9717C149.479 50.332 149.394 49.7803 149.223 49.3164C149.052 48.8477 148.788 48.4863 148.432 48.2324C148.075 47.9785 147.614 47.8516 147.048 47.8516C146.213 47.8516 145.6 48.1274 145.209 48.6792C144.824 49.231 144.631 49.9951 144.631 50.9717ZM156.542 46.8262C157.495 46.8262 158.215 47.0605 158.703 47.5293C159.191 47.9932 159.435 48.7402 159.435 49.7705V55H158.234V49.8511C158.234 49.1821 158.08 48.6816 157.773 48.3496C157.47 48.0176 157.004 47.8516 156.374 47.8516C155.485 47.8516 154.86 48.103 154.499 48.606C154.138 49.1089 153.957 49.8389 153.957 50.7959V55H152.741V46.9727H153.723L153.906 48.1299H153.972C154.142 47.8467 154.36 47.6099 154.623 47.4194C154.887 47.2241 155.183 47.0776 155.51 46.98C155.837 46.8774 156.181 46.8262 156.542 46.8262Z" fill="#161C2D"/>
<path fill-rule="evenodd" clip-rule="evenodd" d="M235 47L240 52L245 47H235Z" fill="#161C2D"/>
<path fill-rule="evenodd" clip-rule="evenodd" d="M35.5 40C32.3051 40 29 42.4111 29 46.4458C29 50.7247 34.975 56.6993 35.2297 56.9514C35.3012 57.0227 35.3987 57.0625 35.5 57.0625C35.6013 57.0625 35.6988 57.0227 35.7703 56.9514C36.025 56.6993 42 50.7247 42 46.4458C42 42.4111 38.6949 40 35.5 40ZM35.5 48.7208C34.2348 48.7208 33.2059 47.7005 33.2059 46.4458C33.2059 45.1912 34.2348 44.1708 35.5 44.1708C36.7652 44.1708 37.7941 45.1912 37.7941 46.4458C37.7941 47.7005 36.7652 48.7208 35.5 48.7208Z" fill="#161C2D"/>
</g>
<g clip-path="url(#clip2_2_365)">
<rect x="286" y="24" width="250" height="50" rx="8" fill="white"/>
<rect x="286" y="24" width="250" height="50" rx="8" stroke="#E7E9ED"/>
<path d="M339.515 52.1509C339.515 53.0933 339.173 53.8281 338.489 54.3555C337.806 54.8828 336.878 55.1465 335.706 55.1465C334.437 55.1465 333.46 54.9829 332.776 54.6558V53.4546C333.216 53.6401 333.694 53.7866 334.212 53.894C334.729 54.0015 335.242 54.0552 335.75 54.0552C336.58 54.0552 337.205 53.8989 337.625 53.5864C338.045 53.269 338.255 52.8296 338.255 52.2681C338.255 51.897 338.179 51.5942 338.028 51.3599C337.881 51.1206 337.632 50.9009 337.281 50.7007C336.934 50.5005 336.404 50.2734 335.691 50.0195C334.695 49.6631 333.982 49.2407 333.553 48.7524C333.128 48.2642 332.916 47.627 332.916 46.8408C332.916 46.0156 333.226 45.3589 333.846 44.8706C334.466 44.3823 335.286 44.1382 336.307 44.1382C337.371 44.1382 338.35 44.3335 339.244 44.7241L338.855 45.8081C337.972 45.437 337.112 45.2515 336.277 45.2515C335.618 45.2515 335.103 45.3931 334.732 45.6763C334.361 45.9595 334.175 46.3525 334.175 46.8555C334.175 47.2266 334.244 47.5317 334.38 47.771C334.517 48.0054 334.747 48.2227 335.069 48.4229C335.396 48.6182 335.894 48.8354 336.563 49.0747C337.686 49.4751 338.458 49.9048 338.877 50.3638C339.302 50.8228 339.515 51.4185 339.515 52.1509ZM344.813 55.1465C343.626 55.1465 342.689 54.7852 342 54.0625C341.317 53.3398 340.975 52.3364 340.975 51.0522C340.975 49.7583 341.292 48.7305 341.927 47.9688C342.567 47.207 343.423 46.8262 344.498 46.8262C345.504 46.8262 346.299 47.1582 346.885 47.8223C347.471 48.4814 347.764 49.353 347.764 50.437V51.2061H342.234C342.259 52.1484 342.496 52.8638 342.945 53.3521C343.399 53.8403 344.036 54.0845 344.857 54.0845C345.721 54.0845 346.575 53.9038 347.42 53.5425V54.6265C346.99 54.812 346.583 54.9438 346.197 55.022C345.816 55.105 345.355 55.1465 344.813 55.1465ZM344.483 47.8442C343.838 47.8442 343.323 48.0542 342.938 48.4741C342.557 48.894 342.332 49.4751 342.264 50.2173H346.461C346.461 49.4507 346.29 48.8647 345.948 48.4595C345.606 48.0493 345.118 47.8442 344.483 47.8442ZM350.96 55H349.744V43.6035H350.96V55ZM356.829 55.1465C355.643 55.1465 354.705 54.7852 354.017 54.0625C353.333 53.3398 352.992 52.3364 352.992 51.0522C352.992 49.7583 353.309 48.7305 353.944 47.9688C354.583 47.207 355.44 46.8262 356.514 46.8262C357.52 46.8262 358.316 47.1582 358.902 47.8223C359.488 48.4814 359.781 49.353 359.781 50.437V51.2061H354.251C354.276 52.1484 354.513 52.8638 354.962 53.3521C355.416 53.8403 356.053 54.0845 356.873 54.0845C357.738 54.0845 358.592 53.9038 359.437 53.5425V54.6265C359.007 54.812 358.599 54.9438 358.214 55.022C357.833 55.105 357.371 55.1465 356.829 55.1465ZM356.5 47.8442C355.855 47.8442 355.34 48.0542 354.954 48.4741C354.574 48.894 354.349 49.4751 354.281 50.2173H358.477C358.477 49.4507 358.306 48.8647 357.965 48.4595C357.623 48.0493 357.135 47.8442 356.5 47.8442ZM364.969 55.1465C363.807 55.1465 362.906 54.79 362.267 54.0771C361.632 53.3594 361.314 52.3462 361.314 51.0376C361.314 49.6948 361.637 48.6572 362.281 47.9248C362.931 47.1924 363.853 46.8262 365.05 46.8262C365.435 46.8262 365.821 46.8677 366.207 46.9507C366.593 47.0337 366.895 47.1313 367.115 47.2437L366.742 48.2764C366.473 48.1689 366.18 48.0811 365.863 48.0127C365.545 47.9395 365.265 47.9028 365.02 47.9028C363.39 47.9028 362.574 48.9429 362.574 51.0229C362.574 52.0093 362.772 52.7661 363.167 53.2935C363.568 53.8208 364.159 54.0845 364.94 54.0845C365.609 54.0845 366.295 53.9404 366.998 53.6523V54.729C366.461 55.0073 365.785 55.1465 364.969 55.1465ZM371.402 54.1431C371.617 54.1431 371.825 54.1284 372.025 54.0991C372.225 54.0649 372.384 54.0308 372.501 53.9966V54.9268C372.369 54.9902 372.174 55.0415 371.915 55.0806C371.661 55.1245 371.432 55.1465 371.227 55.1465C369.674 55.1465 368.897 54.3286 368.897 52.6929V47.9175H367.748V47.3315L368.897 46.8262L369.41 45.1123H370.113V46.9727H372.442V47.9175H370.113V52.6416C370.113 53.125 370.228 53.4961 370.458 53.7549C370.687 54.0137 371.002 54.1431 371.402 54.1431ZM386.539 49.5435C386.539 51.311 386.058 52.6636 385.096 53.6011C384.139 54.5337 382.76 55 380.958 55H377.992V44.292H381.273C382.938 44.292 384.232 44.7534 385.155 45.6763C386.078 46.5991 386.539 47.8882 386.539 49.5435ZM385.221 49.5874C385.221 48.1909 384.869 47.1387 384.166 46.4307C383.468 45.7227 382.428 45.3687 381.046 45.3687H379.237V53.9233H380.753C382.237 53.9233 383.353 53.5596 384.1 52.832C384.847 52.0996 385.221 51.0181 385.221 49.5874ZM393.588 55L393.346 53.8574H393.287C392.887 54.3604 392.487 54.7021 392.086 54.8828C391.691 55.0586 391.195 55.1465 390.599 55.1465C389.804 55.1465 389.179 54.9414 388.724 54.5312C388.275 54.1211 388.051 53.5376 388.051 52.7808C388.051 51.1597 389.347 50.3101 391.94 50.2319L393.302 50.188V49.6899C393.302 49.0601 393.165 48.5962 392.892 48.2983C392.623 47.9956 392.191 47.8442 391.596 47.8442C390.927 47.8442 390.17 48.0493 389.325 48.4595L388.951 47.5293C389.347 47.3145 389.779 47.146 390.248 47.0239C390.721 46.9019 391.195 46.8408 391.669 46.8408C392.626 46.8408 393.334 47.0532 393.793 47.478C394.257 47.9028 394.489 48.584 394.489 49.5215V55H393.588ZM390.841 54.1431C391.598 54.1431 392.191 53.9355 392.621 53.5205C393.055 53.1055 393.273 52.5244 393.273 51.7773V51.0522L392.057 51.1035C391.09 51.1377 390.392 51.2891 389.962 51.5576C389.537 51.8213 389.325 52.2339 389.325 52.7954C389.325 53.2349 389.457 53.5693 389.721 53.7988C389.989 54.0283 390.363 54.1431 390.841 54.1431ZM399.494 54.1431C399.708 54.1431 399.916 54.1284 400.116 54.0991C400.316 54.0649 400.475 54.0308 400.592 53.9966V54.9268C400.46 54.9902 400.265 55.0415 400.006 55.0806C399.752 55.1245 399.523 55.1465 399.318 55.1465C397.765 55.1465 396.989 54.3286 396.989 52.6929V47.9175H395.839V47.3315L396.989 46.8262L397.501 45.1123H398.204V46.9727H400.534V47.9175H398.204V52.6416C398.204 53.125 398.319 53.4961 398.549 53.7549C398.778 54.0137 399.093 54.1431 399.494 54.1431ZM405.495 55.1465C404.308 55.1465 403.371 54.7852 402.682 54.0625C401.999 53.3398 401.657 52.3364 401.657 51.0522C401.657 49.7583 401.974 48.7305 402.609 47.9688C403.249 47.207 404.105 46.8262 405.18 46.8262C406.186 46.8262 406.981 47.1582 407.567 47.8223C408.153 48.4814 408.446 49.353 408.446 50.437V51.2061H402.917C402.941 52.1484 403.178 52.8638 403.627 53.3521C404.081 53.8403 404.718 54.0845 405.539 54.0845C406.403 54.0845 407.257 53.9038 408.102 53.5425V54.6265C407.672 54.812 407.265 54.9438 406.879 55.022C406.498 55.105 406.037 55.1465 405.495 55.1465ZM405.165 47.8442C404.521 47.8442 404.005 48.0542 403.62 48.4741C403.239 48.894 403.014 49.4751 402.946 50.2173H407.143C407.143 49.4507 406.972 48.8647 406.63 48.4595C406.288 48.0493 405.8 47.8442 405.165 47.8442Z" fill="#161C2D"/>
<path fill-rule="evenodd" clip-rule="evenodd" d="M510 47L515 52L520 47H510Z" fill="#161C2D"/>
<path d="M302 47.647H318" stroke="#2D2D2D" stroke-width="2" stroke-linecap="round" stroke-linejoin="round"/>
<rect x="302" y="42.8823" width="16" height="14.1176" rx="2" stroke="#2D2D2D" stroke-width="2" stroke-linecap="round" stroke-linejoin="round"/>
<path d="M306.235 44.7647V41" stroke="#2D2D2D" stroke-width="2" stroke-linecap="round" stroke-linejoin="round"/>
<path d="M313.765 44.7647V41" stroke="#2D2D2D" stroke-width="2" stroke-linecap="round" stroke-linejoin="round"/>
</g>
<path d="M272.5 1.5V94.5" stroke="#E7E9ED"/>
<defs>
<filter id="filter0_d_2_365" x="-30" y="0" width="830" height="179" filterUnits="userSpaceOnUse" color-interpolation-filters="sRGB">
<feFlood flood-opacity="0" result="BackgroundImageFix"/>
<feColorMatrix in="SourceAlpha" type="matrix" values="0 0 0 0 0 0 0 0 0 0 0 0 0 0 0 0 0 0 127 0" result="hardAlpha"/>
<feMorphology radius="23" operator="erode" in="SourceAlpha" result="effect1_dropShadow_2_365"/>
<feOffset dy="54"/>
<feGaussianBlur stdDeviation="26.5"/>
<feColorMatrix type="matrix" values="0 0 0 0 0.0862745 0 0 0 0 0.109804 0 0 0 0 0.176471 0 0 0 0.497924 0"/>
<feBlend mode="normal" in2="BackgroundImageFix" result="effect1_dropShadow_2_365"/>
<feBlend mode="normal" in="SourceGraphic" in2="effect1_dropShadow_2_365" result="shape"/>
</filter>
<clipPath id="clip0_2_365">
<rect width="199" height="51" fill="white" transform="translate(551 23)"/>
</clipPath>
<clipPath id="clip1_2_365">
<rect width="250" height="50" fill="white" transform="translate(11 24)"/>
</clipPath>
<clipPath id="clip2_2_365">
<rect width="250" height="50" fill="white" transform="translate(286 24)"/>
</clipPath>
</defs>
</svg>
